<svg xmlns="http://www.w3.org/2000/svg" viewBox="0 0 1200 1000" role="img"><defs><marker id="direction" viewBox="0 0 10 10" refX="8" refY="5" markerWidth="5" markerHeight="5" orient="auto-start-reverse"><path d="M0 0L10 5L0 10z" fill="#eee4d4"/></marker></defs><path d="M600 165 L870 305" stroke="#75453b" stroke-width="3" fill="none"/><path d="M740.4 237.8 L754.6040725031828 245.16507463128002" stroke="#cc8474" stroke-width="3" marker-end="url(#direction)"/><path d="M870 305 L965 555" stroke="#75453b" stroke-width="3" fill="none"/><path d="M919.4 435 L925.0834841699772 449.9565372894136" stroke="#cc8474" stroke-width="3" marker-end="url(#direction)"/><path d="M965 555 L815 795" stroke="#75453b" stroke-width="3" fill="none"/><path d="M887 679.8 L878.5200169599491 693.3679728640814" stroke="#cc8474" stroke-width="3" marker-end="url(#direction)"/><path d="M815 795 L385 795" stroke="#75453b" stroke-width="3" fill="none"/><path d="M591.4 795 L575.4 795" stroke="#cc8474" stroke-width="3" marker-end="url(#direction)"/><path d="M385 795 L235 555" stroke="#75453b" stroke-width="3" fill="none"/><path d="M307 670.2 L298.52001695994915 656.6320271359186" stroke="#cc8474" stroke-width="3" marker-end="url(#direction)"/><path d="M235 555 L330 305" stroke="#75453b" stroke-width="3" fill="none"/><path d="M284.4 425 L290.0834841699771 410.0434627105864" stroke="#cc8474" stroke-width="3" marker-end="url(#direction)"/><g data-station="s3" data-clue="Корона под снегом." transform="translate(510 75)" role="button" tabindex="0" aria-label="Корона под снегом."><text x="90" y="-32" text-anchor="middle" fill="#c9bdb5" font-family="Arial,sans-serif" font-size="19">Корона под</text><text x="90" y="-9" text-anchor="middle" fill="#c9bdb5" font-family="Arial,sans-serif" font-size="19">снегом.</text><g data-field="" data-box="0 0 180 180"><rect width="180" height="180" rx="20" fill="#090809" stroke="#713b32" stroke-width="2"/><path d="M23 5H157L175 23V157L157 175H23L5 157V23z" fill="none" stroke="#663530" stroke-width="1.5"/><path d="M80 5L90 15L100 5 M175 80L165 90L175 100 M80 175L90 165L100 175" fill="none" stroke="#a65b50" stroke-width="1.5"/><path d="M8 23V8H23 M157 8H172V23 M8 157V172H23" fill="none" stroke="#9e5147" stroke-width="3"/><text data-cell="s3-0" x="30" y="36" text-anchor="middle" font-family="monospace" font-size="23" fill="#ded7d2">@</text><text data-cell="s3-1" x="60" y="36" text-anchor="middle" font-family="monospace" font-size="23" fill="#ded7d2">@</text><text data-cell="s3-2" x="90" y="36" text-anchor="middle" font-family="monospace" font-size="23" fill="#ded7d2">@</text><text data-cell="s3-3" x="120" y="36" text-anchor="middle" font-family="monospace" font-size="23" fill="#ded7d2">@</text><text data-cell="s3-4" x="150" y="36" text-anchor="middle" font-family="monospace" font-size="23" fill="#ded7d2">@</text><text data-cell="s3-5" x="30" y="66" text-anchor="middle" font-family="monospace" font-size="23" fill="#ded7d2">@</text><text data-cell="s3-6" x="60" y="66" text-anchor="middle" font-family="monospace" font-size="23" fill="#ded7d2">@</text><text data-cell="s3-7" x="90" y="66" text-anchor="middle" font-family="monospace" font-size="23" fill="#ded7d2">s</text><text data-cell="s3-8" x="120" y="66" text-anchor="middle" font-family="monospace" font-size="23" fill="#ded7d2">k</text><text data-cell="s3-9" x="150" y="66" text-anchor="middle" font-family="monospace" font-size="23" fill="#ded7d2">d</text><text data-cell="s3-10" x="30" y="96" text-anchor="middle" font-family="monospace" font-size="23" fill="#ded7d2">u</text><text data-cell="s3-11" x="60" y="96" text-anchor="middle" font-family="monospace" font-size="23" fill="#ded7d2">w</text><text data-cell="s3-12" x="90" y="96" text-anchor="middle" font-family="monospace" font-size="23" fill="#ded7d2">b</text><text data-cell="s3-13" x="120" y="96" text-anchor="middle" font-family="monospace" font-size="23" fill="#ded7d2">i</text><text data-cell="s3-14" x="150" y="96" text-anchor="middle" font-family="monospace" font-size="23" fill="#ded7d2">q</text><text data-cell="s3-15" x="30" y="126" text-anchor="middle" font-family="monospace" font-size="23" fill="#ded7d2">p</text><text data-cell="s3-16" x="60" y="126" text-anchor="middle" font-family="monospace" font-size="23" fill="#ded7d2">o</text><text data-cell="s3-17" x="90" y="126" text-anchor="middle" font-family="monospace" font-size="23" fill="#ded7d2">w</text><text data-cell="s3-18" x="120" y="126" text-anchor="middle" font-family="monospace" font-size="23" fill="#ded7d2">j</text><text data-cell="s3-19" x="150" y="126" text-anchor="middle" font-family="monospace" font-size="23" fill="#ded7d2">s</text><text data-cell="s3-20" x="30" y="156" text-anchor="middle" font-family="monospace" font-size="23" fill="#ded7d2">v</text><text data-cell="s3-21" x="60" y="156" text-anchor="middle" font-family="monospace" font-size="23" fill="#ded7d2">q</text><text data-cell="s3-22" x="90" y="156" text-anchor="middle" font-family="monospace" font-size="23" fill="#ded7d2">h</text><text data-cell="s3-23" x="120" y="156" text-anchor="middle" font-family="monospace" font-size="23" fill="#ded7d2">c</text><text data-cell="s3-24" x="150" y="156" text-anchor="middle" font-family="monospace" font-size="23" fill="#ded7d2">o</text></g></g><g data-station="s6" data-clue="Золото, собранное в строй." transform="translate(780 215)" role="button" tabindex="0" aria-label="Золото, собранное в строй."><text x="90" y="-32" text-anchor="middle" fill="#c9bdb5" font-family="Arial,sans-serif" font-size="19">Золото, собранное</text><text x="90" y="-9" text-anchor="middle" fill="#c9bdb5" font-family="Arial,sans-serif" font-size="19">в строй.</text><g data-field="" data-box="0 0 180 180"><rect width="180" height="180" rx="20" fill="#090809" stroke="#713b32" stroke-width="2"/><path d="M23 5H157L175 23V157L157 175H23L5 157V23z" fill="none" stroke="#663530" stroke-width="1.5"/><path d="M80 5L90 15L100 5 M175 80L165 90L175 100 M80 175L90 165L100 175" fill="none" stroke="#a65b50" stroke-width="1.5"/><path d="M8 23V8H23 M157 8H172V23 M8 157V172H23" fill="none" stroke="#9e5147" stroke-width="3"/><text data-cell="s6-0" x="30" y="36" text-anchor="middle" font-family="monospace" font-size="23" fill="#ded7d2">t</text><text data-cell="s6-1" x="60" y="36" text-anchor="middle" font-family="monospace" font-size="23" fill="#ded7d2">a</text><text data-cell="s6-2" x="90" y="36" text-anchor="middle" font-family="monospace" font-size="23" fill="#ded7d2">c</text><text data-cell="s6-3" x="120" y="36" text-anchor="middle" font-family="monospace" font-size="23" fill="#ded7d2">h</text><text data-cell="s6-4" x="150" y="36" text-anchor="middle" font-family="monospace" font-size="23" fill="#ded7d2">j</text><text data-cell="s6-5" x="30" y="66" text-anchor="middle" font-family="monospace" font-size="23" fill="#ded7d2">o</text><text data-cell="s6-6" x="60" y="66" text-anchor="middle" font-family="monospace" font-size="23" fill="#ded7d2">v</text><text data-cell="s6-7" x="90" y="66" text-anchor="middle" font-family="monospace" font-size="23" fill="#ded7d2">g</text><text data-cell="s6-8" x="120" y="66" text-anchor="middle" font-family="monospace" font-size="23" fill="#ded7d2">d</text><text data-cell="s6-9" x="150" y="66" text-anchor="middle" font-family="monospace" font-size="23" fill="#ded7d2">w</text><text data-cell="s6-10" x="30" y="96" text-anchor="middle" font-family="monospace" font-size="23" fill="#ded7d2">i</text><text data-cell="s6-11" x="60" y="96" text-anchor="middle" font-family="monospace" font-size="23" fill="#ded7d2">p</text><text data-cell="s6-12" x="90" y="96" text-anchor="middle" font-family="monospace" font-size="23" fill="#ded7d2">u</text><text data-cell="s6-13" x="120" y="96" text-anchor="middle" font-family="monospace" font-size="23" fill="#ded7d2">b</text><text data-cell="s6-14" x="150" y="96" text-anchor="middle" font-family="monospace" font-size="23" fill="#ded7d2">j</text><text data-cell="s6-15" x="30" y="126" text-anchor="middle" font-family="monospace" font-size="23" fill="#ded7d2">i</text><text data-cell="s6-16" x="60" y="126" text-anchor="middle" font-family="monospace" font-size="23" fill="#ded7d2">h</text><text data-cell="s6-17" x="90" y="126" text-anchor="middle" font-family="monospace" font-size="23" fill="#ded7d2">p</text><text data-cell="s6-18" x="120" y="126" text-anchor="middle" font-family="monospace" font-size="23" fill="#ded7d2"> </text><text data-cell="s6-19" x="150" y="126" text-anchor="middle" font-family="monospace" font-size="23" fill="#ded7d2"> </text><text data-cell="s6-20" x="30" y="156" text-anchor="middle" font-family="monospace" font-size="23" fill="#ded7d2"> </text><text data-cell="s6-21" x="60" y="156" text-anchor="middle" font-family="monospace" font-size="23" fill="#ded7d2"> </text><text data-cell="s6-22" x="90" y="156" text-anchor="middle" font-family="monospace" font-size="23" fill="#ded7d2"> </text><text data-cell="s6-23" x="120" y="156" text-anchor="middle" font-family="monospace" font-size="23" fill="#ded7d2"> </text><text data-cell="s6-24" x="150" y="156" text-anchor="middle" font-family="monospace" font-size="23" fill="#ded7d2"> </text></g></g><g data-station="s1" data-clue="Три венца над ветвью." transform="translate(875 465)" role="button" tabindex="0" aria-label="Три венца над ветвью."><text x="90" y="-32" text-anchor="middle" fill="#c9bdb5" font-family="Arial,sans-serif" font-size="19">Три венца</text><text x="90" y="-9" text-anchor="middle" fill="#c9bdb5" font-family="Arial,sans-serif" font-size="19">над ветвью.</text><g data-field="" data-box="0 0 180 180"><rect width="180" height="180" rx="20" fill="#090809" stroke="#713b32" stroke-width="2"/><path d="M23 5H157L175 23V157L157 175H23L5 157V23z" fill="none" stroke="#663530" stroke-width="1.5"/><path d="M80 5L90 15L100 5 M175 80L165 90L175 100 M80 175L90 165L100 175" fill="none" stroke="#a65b50" stroke-width="1.5"/><path d="M8 23V8H23 M157 8H172V23 M8 157V172H23" fill="none" stroke="#9e5147" stroke-width="3"/><text data-cell="s1-0" x="30" y="36" text-anchor="middle" font-family="monospace" font-size="23" fill="#ded7d2">m</text><text data-cell="s1-1" x="60" y="36" text-anchor="middle" font-family="monospace" font-size="23" fill="#ded7d2">t</text><text data-cell="s1-2" x="90" y="36" text-anchor="middle" font-family="monospace" font-size="23" fill="#ded7d2">v</text><text data-cell="s1-3" x="120" y="36" text-anchor="middle" font-family="monospace" font-size="23" fill="#ded7d2">s</text><text data-cell="s1-4" x="150" y="36" text-anchor="middle" font-family="monospace" font-size="23" fill="#ded7d2">c</text><text data-cell="s1-5" x="30" y="66" text-anchor="middle" font-family="monospace" font-size="23" fill="#ded7d2">h</text><text data-cell="s1-6" x="60" y="66" text-anchor="middle" font-family="monospace" font-size="23" fill="#ded7d2">o</text><text data-cell="s1-7" x="90" y="66" text-anchor="middle" font-family="monospace" font-size="23" fill="#ded7d2">z</text><text data-cell="s1-8" x="120" y="66" text-anchor="middle" font-family="monospace" font-size="23" fill="#ded7d2">w</text><text data-cell="s1-9" x="150" y="66" text-anchor="middle" font-family="monospace" font-size="23" fill="#ded7d2">p</text><text data-cell="s1-10" x="30" y="96" text-anchor="middle" font-family="monospace" font-size="23" fill="#ded7d2">g</text><text data-cell="s1-11" x="60" y="96" text-anchor="middle" font-family="monospace" font-size="23" fill="#ded7d2">i</text><text data-cell="s1-12" x="90" y="96" text-anchor="middle" font-family="monospace" font-size="23" fill="#ded7d2">h</text><text data-cell="s1-13" x="120" y="96" text-anchor="middle" font-family="monospace" font-size="23" fill="#ded7d2">u</text><text data-cell="s1-14" x="150" y="96" text-anchor="middle" font-family="monospace" font-size="23" fill="#ded7d2">c</text><text data-cell="s1-15" x="30" y="126" text-anchor="middle" font-family="monospace" font-size="23" fill="#ded7d2">b</text><text data-cell="s1-16" x="60" y="126" text-anchor="middle" font-family="monospace" font-size="23" fill="#ded7d2">a</text><text data-cell="s1-17" x="90" y="126" text-anchor="middle" font-family="monospace" font-size="23" fill="#ded7d2">i</text><text data-cell="s1-18" x="120" y="126" text-anchor="middle" font-family="monospace" font-size="23" fill="#ded7d2"> </text><text data-cell="s1-19" x="150" y="126" text-anchor="middle" font-family="monospace" font-size="23" fill="#ded7d2"> </text><text data-cell="s1-20" x="30" y="156" text-anchor="middle" font-family="monospace" font-size="23" fill="#ded7d2"> </text><text data-cell="s1-21" x="60" y="156" text-anchor="middle" font-family="monospace" font-size="23" fill="#ded7d2"> </text><text data-cell="s1-22" x="90" y="156" text-anchor="middle" font-family="monospace" font-size="23" fill="#ded7d2"> </text><text data-cell="s1-23" x="120" y="156" text-anchor="middle" font-family="monospace" font-size="23" fill="#ded7d2"> </text><text data-cell="s1-24" x="150" y="156" text-anchor="middle" font-family="monospace" font-size="23" fill="#ded7d2"> </text></g></g><g data-station="s5" data-clue="Трава на холсте." transform="translate(725 705)" role="button" tabindex="0" aria-label="Трава на холсте."><text x="90" y="-32" text-anchor="middle" fill="#c9bdb5" font-family="Arial,sans-serif" font-size="19">Трава на</text><text x="90" y="-9" text-anchor="middle" fill="#c9bdb5" font-family="Arial,sans-serif" font-size="19">холсте.</text><g data-field="" data-box="0 0 180 180"><rect width="180" height="180" rx="20" fill="#090809" stroke="#713b32" stroke-width="2"/><path d="M23 5H157L175 23V157L157 175H23L5 157V23z" fill="none" stroke="#663530" stroke-width="1.5"/><path d="M80 5L90 15L100 5 M175 80L165 90L175 100 M80 175L90 165L100 175" fill="none" stroke="#a65b50" stroke-width="1.5"/><path d="M8 23V8H23 M157 8H172V23 M8 157V172H23" fill="none" stroke="#9e5147" stroke-width="3"/><text data-cell="s5-0" x="30" y="36" text-anchor="middle" font-family="monospace" font-size="23" fill="#ded7d2">f</text><text data-cell="s5-1" x="60" y="36" text-anchor="middle" font-family="monospace" font-size="23" fill="#ded7d2">m</text><text data-cell="s5-2" x="90" y="36" text-anchor="middle" font-family="monospace" font-size="23" fill="#ded7d2">p</text><text data-cell="s5-3" x="120" y="36" text-anchor="middle" font-family="monospace" font-size="23" fill="#ded7d2">t</text><text data-cell="s5-4" x="150" y="36" text-anchor="middle" font-family="monospace" font-size="23" fill="#ded7d2">v</text><text data-cell="s5-5" x="30" y="66" text-anchor="middle" font-family="monospace" font-size="23" fill="#ded7d2">o</text><text data-cell="s5-6" x="60" y="66" text-anchor="middle" font-family="monospace" font-size="23" fill="#ded7d2">h</text><text data-cell="s5-7" x="90" y="66" text-anchor="middle" font-family="monospace" font-size="23" fill="#ded7d2"> </text><text data-cell="s5-8" x="120" y="66" text-anchor="middle" font-family="monospace" font-size="23" fill="#ded7d2">p</text><text data-cell="s5-9" x="150" y="66" text-anchor="middle" font-family="monospace" font-size="23" fill="#ded7d2"> </text><text data-cell="s5-10" x="30" y="96" text-anchor="middle" font-family="monospace" font-size="23" fill="#ded7d2"> </text><text data-cell="s5-11" x="60" y="96" text-anchor="middle" font-family="monospace" font-size="23" fill="#ded7d2"> </text><text data-cell="s5-12" x="90" y="96" text-anchor="middle" font-family="monospace" font-size="23" fill="#ded7d2"> </text><text data-cell="s5-13" x="120" y="96" text-anchor="middle" font-family="monospace" font-size="23" fill="#ded7d2"> </text><text data-cell="s5-14" x="150" y="96" text-anchor="middle" font-family="monospace" font-size="23" fill="#ded7d2">v</text><text data-cell="s5-15" x="30" y="126" text-anchor="middle" font-family="monospace" font-size="23" fill="#ded7d2"> </text><text data-cell="s5-16" x="60" y="126" text-anchor="middle" font-family="monospace" font-size="23" fill="#ded7d2">t</text><text data-cell="s5-17" x="90" y="126" text-anchor="middle" font-family="monospace" font-size="23" fill="#ded7d2">b</text><text data-cell="s5-18" x="120" y="126" text-anchor="middle" font-family="monospace" font-size="23" fill="#ded7d2"> </text><text data-cell="s5-19" x="150" y="126" text-anchor="middle" font-family="monospace" font-size="23" fill="#ded7d2"> </text><text data-cell="s5-20" x="30" y="156" text-anchor="middle" font-family="monospace" font-size="23" fill="#ded7d2"> </text><text data-cell="s5-21" x="60" y="156" text-anchor="middle" font-family="monospace" font-size="23" fill="#ded7d2"> </text><text data-cell="s5-22" x="90" y="156" text-anchor="middle" font-family="monospace" font-size="23" fill="#ded7d2"> </text><text data-cell="s5-23" x="120" y="156" text-anchor="middle" font-family="monospace" font-size="23" fill="#ded7d2"> </text><text data-cell="s5-24" x="150" y="156" text-anchor="middle" font-family="monospace" font-size="23" fill="#ded7d2"> </text></g></g><g data-station="s7" data-clue="Золото восстаёт из пепла." transform="translate(295 705)" role="button" tabindex="0" aria-label="Золото восстаёт из пепла."><text x="90" y="-32" text-anchor="middle" fill="#c9bdb5" font-family="Arial,sans-serif" font-size="19">Золото восстаёт</text><text x="90" y="-9" text-anchor="middle" fill="#c9bdb5" font-family="Arial,sans-serif" font-size="19">из пепла.</text><g data-field="" data-box="0 0 180 180"><rect width="180" height="180" rx="20" fill="#090809" stroke="#713b32" stroke-width="2"/><path d="M23 5H157L175 23V157L157 175H23L5 157V23z" fill="none" stroke="#663530" stroke-width="1.5"/><path d="M80 5L90 15L100 5 M175 80L165 90L175 100 M80 175L90 165L100 175" fill="none" stroke="#a65b50" stroke-width="1.5"/><path d="M8 23V8H23 M157 8H172V23 M8 157V172H23" fill="none" stroke="#9e5147" stroke-width="3"/><text data-cell="s7-0" x="30" y="36" text-anchor="middle" font-family="monospace" font-size="23" fill="#ded7d2">Ч</text><text data-cell="s7-1" x="60" y="36" text-anchor="middle" font-family="monospace" font-size="23" fill="#ded7d2">В</text><text data-cell="s7-2" x="90" y="36" text-anchor="middle" font-family="monospace" font-size="23" fill="#ded7d2">Г</text><text data-cell="s7-3" x="120" y="36" text-anchor="middle" font-family="monospace" font-size="23" fill="#ded7d2">К</text><text data-cell="s7-4" x="150" y="36" text-anchor="middle" font-family="monospace" font-size="23" fill="#ded7d2">Л</text><text data-cell="s7-5" x="30" y="66" text-anchor="middle" font-family="monospace" font-size="23" fill="#ded7d2">С</text><text data-cell="s7-6" x="60" y="66" text-anchor="middle" font-family="monospace" font-size="23" fill="#ded7d2">О</text><text data-cell="s7-7" x="90" y="66" text-anchor="middle" font-family="monospace" font-size="23" fill="#ded7d2"> </text><text data-cell="s7-8" x="120" y="66" text-anchor="middle" font-family="monospace" font-size="23" fill="#ded7d2">Ц</text><text data-cell="s7-9" x="150" y="66" text-anchor="middle" font-family="monospace" font-size="23" fill="#ded7d2"> </text><text data-cell="s7-10" x="30" y="96" text-anchor="middle" font-family="monospace" font-size="23" fill="#ded7d2"> </text><text data-cell="s7-11" x="60" y="96" text-anchor="middle" font-family="monospace" font-size="23" fill="#ded7d2"> </text><text data-cell="s7-12" x="90" y="96" text-anchor="middle" font-family="monospace" font-size="23" fill="#ded7d2"> </text><text data-cell="s7-13" x="120" y="96" text-anchor="middle" font-family="monospace" font-size="23" fill="#ded7d2"> </text><text data-cell="s7-14" x="150" y="96" text-anchor="middle" font-family="monospace" font-size="23" fill="#ded7d2">К</text><text data-cell="s7-15" x="30" y="126" text-anchor="middle" font-family="monospace" font-size="23" fill="#ded7d2"> </text><text data-cell="s7-16" x="60" y="126" text-anchor="middle" font-family="monospace" font-size="23" fill="#ded7d2">Я</text><text data-cell="s7-17" x="90" y="126" text-anchor="middle" font-family="monospace" font-size="23" fill="#ded7d2">Г</text><text data-cell="s7-18" x="120" y="126" text-anchor="middle" font-family="monospace" font-size="23" fill="#ded7d2"> </text><text data-cell="s7-19" x="150" y="126" text-anchor="middle" font-family="monospace" font-size="23" fill="#ded7d2"> </text><text data-cell="s7-20" x="30" y="156" text-anchor="middle" font-family="monospace" font-size="23" fill="#ded7d2"> </text><text data-cell="s7-21" x="60" y="156" text-anchor="middle" font-family="monospace" font-size="23" fill="#ded7d2"> </text><text data-cell="s7-22" x="90" y="156" text-anchor="middle" font-family="monospace" font-size="23" fill="#ded7d2"> </text><text data-cell="s7-23" x="120" y="156" text-anchor="middle" font-family="monospace" font-size="23" fill="#ded7d2"> </text><text data-cell="s7-24" x="150" y="156" text-anchor="middle" font-family="monospace" font-size="23" fill="#ded7d2"> </text></g></g><g data-station="s2" data-clue="Дневное и ночное светило." transform="translate(145 465)" role="button" tabindex="0" aria-label="Дневное и ночное светило."><text x="90" y="-32" text-anchor="middle" fill="#c9bdb5" font-family="Arial,sans-serif" font-size="19">Дневное и</text><text x="90" y="-9" text-anchor="middle" fill="#c9bdb5" font-family="Arial,sans-serif" font-size="19">ночное светило.</text><g data-field="" data-box="0 0 180 180"><rect width="180" height="180" rx="20" fill="#090809" stroke="#713b32" stroke-width="2"/><path d="M23 5H157L175 23V157L157 175H23L5 157V23z" fill="none" stroke="#663530" stroke-width="1.5"/><path d="M80 5L90 15L100 5 M175 80L165 90L175 100 M80 175L90 165L100 175" fill="none" stroke="#a65b50" stroke-width="1.5"/><path d="M8 23V8H23 M157 8H172V23 M8 157V172H23" fill="none" stroke="#9e5147" stroke-width="3"/><text data-cell="s2-0" x="30" y="36" text-anchor="middle" font-family="monospace" font-size="23" fill="#ded7d2">П</text><text data-cell="s2-1" x="60" y="36" text-anchor="middle" font-family="monospace" font-size="23" fill="#ded7d2">Ц</text><text data-cell="s2-2" x="90" y="36" text-anchor="middle" font-family="monospace" font-size="23" fill="#ded7d2">С</text><text data-cell="s2-3" x="120" y="36" text-anchor="middle" font-family="monospace" font-size="23" fill="#ded7d2">Б</text><text data-cell="s2-4" x="150" y="36" text-anchor="middle" font-family="monospace" font-size="23" fill="#ded7d2">В</text><text data-cell="s2-5" x="30" y="66" text-anchor="middle" font-family="monospace" font-size="23" fill="#ded7d2">И</text><text data-cell="s2-6" x="60" y="66" text-anchor="middle" font-family="monospace" font-size="23" fill="#ded7d2">Р</text><text data-cell="s2-7" x="90" y="66" text-anchor="middle" font-family="monospace" font-size="23" fill="#ded7d2">А</text><text data-cell="s2-8" x="120" y="66" text-anchor="middle" font-family="monospace" font-size="23" fill="#ded7d2">О</text><text data-cell="s2-9" x="150" y="66" text-anchor="middle" font-family="monospace" font-size="23" fill="#ded7d2">Р</text><text data-cell="s2-10" x="30" y="96" text-anchor="middle" font-family="monospace" font-size="23" fill="#ded7d2">З</text><text data-cell="s2-11" x="60" y="96" text-anchor="middle" font-family="monospace" font-size="23" fill="#ded7d2">Е</text><text data-cell="s2-12" x="90" y="96" text-anchor="middle" font-family="monospace" font-size="23" fill="#ded7d2">П</text><text data-cell="s2-13" x="120" y="96" text-anchor="middle" font-family="monospace" font-size="23" fill="#ded7d2">Ц</text><text data-cell="s2-14" x="150" y="96" text-anchor="middle" font-family="monospace" font-size="23" fill="#ded7d2">Б</text><text data-cell="s2-15" x="30" y="126" text-anchor="middle" font-family="monospace" font-size="23" fill="#ded7d2">Б</text><text data-cell="s2-16" x="60" y="126" text-anchor="middle" font-family="monospace" font-size="23" fill="#ded7d2">У</text><text data-cell="s2-17" x="90" y="126" text-anchor="middle" font-family="monospace" font-size="23" fill="#ded7d2">Ч</text><text data-cell="s2-18" x="120" y="126" text-anchor="middle" font-family="monospace" font-size="23" fill="#ded7d2"> </text><text data-cell="s2-19" x="150" y="126" text-anchor="middle" font-family="monospace" font-size="23" fill="#ded7d2"> </text><text data-cell="s2-20" x="30" y="156" text-anchor="middle" font-family="monospace" font-size="23" fill="#ded7d2"> </text><text data-cell="s2-21" x="60" y="156" text-anchor="middle" font-family="monospace" font-size="23" fill="#ded7d2"> </text><text data-cell="s2-22" x="90" y="156" text-anchor="middle" font-family="monospace" font-size="23" fill="#ded7d2"> </text><text data-cell="s2-23" x="120" y="156" text-anchor="middle" font-family="monospace" font-size="23" fill="#ded7d2"> </text><text data-cell="s2-24" x="150" y="156" text-anchor="middle" font-family="monospace" font-size="23" fill="#ded7d2"> </text></g></g><g data-station="s4" data-clue="Долины, вода и камыш." transform="translate(240 215)" role="button" tabindex="0" aria-label="Долины, вода и камыш."><text x="90" y="-32" text-anchor="middle" fill="#c9bdb5" font-family="Arial,sans-serif" font-size="19">Долины, вода</text><text x="90" y="-9" text-anchor="middle" fill="#c9bdb5" font-family="Arial,sans-serif" font-size="19">и камыш.</text><g data-field="" data-box="0 0 180 180"><rect width="180" height="180" rx="20" fill="#090809" stroke="#713b32" stroke-width="2"/><path d="M23 5H157L175 23V157L157 175H23L5 157V23z" fill="none" stroke="#663530" stroke-width="1.5"/><path d="M80 5L90 15L100 5 M175 80L165 90L175 100 M80 175L90 165L100 175" fill="none" stroke="#a65b50" stroke-width="1.5"/><path d="M8 23V8H23 M157 8H172V23 M8 157V172H23" fill="none" stroke="#9e5147" stroke-width="3"/><text data-cell="s4-0" x="30" y="36" text-anchor="middle" font-family="monospace" font-size="23" fill="#ded7d2">Ж</text><text data-cell="s4-1" x="60" y="36" text-anchor="middle" font-family="monospace" font-size="23" fill="#ded7d2">О</text><text data-cell="s4-2" x="90" y="36" text-anchor="middle" font-family="monospace" font-size="23" fill="#ded7d2">П</text><text data-cell="s4-3" x="120" y="36" text-anchor="middle" font-family="monospace" font-size="23" fill="#ded7d2">Х</text><text data-cell="s4-4" x="150" y="36" text-anchor="middle" font-family="monospace" font-size="23" fill="#ded7d2">Б</text><text data-cell="s4-5" x="30" y="66" text-anchor="middle" font-family="monospace" font-size="23" fill="#ded7d2">А</text><text data-cell="s4-6" x="60" y="66" text-anchor="middle" font-family="monospace" font-size="23" fill="#ded7d2">З</text><text data-cell="s4-7" x="90" y="66" text-anchor="middle" font-family="monospace" font-size="23" fill="#ded7d2">Ф</text><text data-cell="s4-8" x="120" y="66" text-anchor="middle" font-family="monospace" font-size="23" fill="#ded7d2">Е</text><text data-cell="s4-9" x="150" y="66" text-anchor="middle" font-family="monospace" font-size="23" fill="#ded7d2">Е</text><text data-cell="s4-10" x="30" y="96" text-anchor="middle" font-family="monospace" font-size="23" fill="#ded7d2">Я</text><text data-cell="s4-11" x="60" y="96" text-anchor="middle" font-family="monospace" font-size="23" fill="#ded7d2">А</text><text data-cell="s4-12" x="90" y="96" text-anchor="middle" font-family="monospace" font-size="23" fill="#ded7d2">Ж</text><text data-cell="s4-13" x="120" y="96" text-anchor="middle" font-family="monospace" font-size="23" fill="#ded7d2">О</text><text data-cell="s4-14" x="150" y="96" text-anchor="middle" font-family="monospace" font-size="23" fill="#ded7d2">Х</text><text data-cell="s4-15" x="30" y="126" text-anchor="middle" font-family="monospace" font-size="23" fill="#ded7d2">Х</text><text data-cell="s4-16" x="60" y="126" text-anchor="middle" font-family="monospace" font-size="23" fill="#ded7d2">Л</text><text data-cell="s4-17" x="90" y="126" text-anchor="middle" font-family="monospace" font-size="23" fill="#ded7d2">П</text><text data-cell="s4-18" x="120" y="126" text-anchor="middle" font-family="monospace" font-size="23" fill="#ded7d2"> </text><text data-cell="s4-19" x="150" y="126" text-anchor="middle" font-family="monospace" font-size="23" fill="#ded7d2"> </text><text data-cell="s4-20" x="30" y="156" text-anchor="middle" font-family="monospace" font-size="23" fill="#ded7d2"> </text><text data-cell="s4-21" x="60" y="156" text-anchor="middle" font-family="monospace" font-size="23" fill="#ded7d2"> </text><text data-cell="s4-22" x="90" y="156" text-anchor="middle" font-family="monospace" font-size="23" fill="#ded7d2"> </text><text data-cell="s4-23" x="120" y="156" text-anchor="middle" font-family="monospace" font-size="23" fill="#ded7d2"> </text><text data-cell="s4-24" x="150" y="156" text-anchor="middle" font-family="monospace" font-size="23" fill="#ded7d2"> </text></g></g><circle data-route-start="" cx="490" cy="165" r="9" fill="#fff"/><rect data-route-end="" x="216" y="297" width="16" height="16" fill="#fff"/><text x="600" y="930" text-anchor="middle" fill="#d7cdbd" font-family="Georgia,serif" font-size="30">● → ■</text><text x="650" y="810" fill="#eee4d4" font-size="30">—</text></svg>
